<?xml version="1.0" encoding="iso-8859-1"?>
<!-- Generator: Adobe Illustrator 19.0.0, SVG Export Plug-In . SVG Version: 6.00 Build 0)  -->
<svg version="1.1" id="Capa_1" xmlns="http://www.w3.org/2000/svg" xmlns:xlink="http://www.w3.org/1999/xlink" x="0px" y="0px"
	 viewBox="0 0 512 512" style="enable-background:new 0 0 512 512;" xml:space="preserve">
<polygon style="fill:#DDDBC7;" points="245.918,146.695 241.645,297.416 189.669,296.426 186.543,186.201 "/>
<path style="fill:#F2BC97;" d="M200.538,176.889c-0.139,0.737-0.219,1.488-0.195,2.258l2.967,93.333
	c0.193,6.056,5.157,10.865,11.215,10.865l0,0c6.073,0,11.044-4.832,11.216-10.902l3.26-114.493L200.538,176.889z"/>
<path style="fill:#D1CCAA;" d="M222.92,116.341l22.998,30.354l-81.363,61.929c-7.465,5.672-16.376,9.139-25.72,10.003l-27.481,2.539
	c-5.833,0.54-10.327-5.067-8.501-10.651l8.674-26.65c3.166-9.689,9.204-18.202,17.327-24.37l62.426-47.465
	C201.207,104.491,215.379,106.414,222.92,116.341z"/>
<path style="fill:#DDDBC7;" d="M342.284,79.819c6.482,25.872,7.68,51.559,3.975,75.389l-22.013,140.229l-46.184-1.254
	l11.884-145.575c1.911-24.035,9.02-48.761,21.313-72.428l14.356-27.653c2.279-4.386,7.886-3.727,9.096,1.07L342.284,79.819z"/>
<path style="fill:#E8B62A;" d="M452.294,497.011c0.67,6.287-3.964,11.937-10.349,12.607l-11.256,1.199
	c-6.384,0.68-12.099-3.867-12.768-10.165L398.584,318.45l-3.511-33.065l-9.538-89.874l-4.451-41.901
	c-0.68-6.384,3.954-12.109,10.338-12.79l11.245-1.188c6.384-0.68,12.109,3.943,12.79,10.327l14.443,136.087l3.436,32.353
	L452.294,497.011z"/>
<path style="fill:#EAA428;" d="M439.134,500.652L419.797,318.45l-3.511-33.065l-9.538-89.874l-4.451-41.901
	c-0.587-5.509,2.787-10.519,7.824-12.229c-2.141-1.36-4.736-2.039-7.454-1.749l-11.245,1.188c-6.384,0.68-11.019,6.405-10.338,12.79
	l4.451,41.901l9.538,89.874l3.511,33.065l19.336,182.202c0.67,6.298,6.384,10.846,12.768,10.165l11.256-1.199
	c0.858-0.09,1.682-0.277,2.469-0.537C441.551,507.274,439.517,504.252,439.134,500.652z"/>
<path style="fill:#00AA95;" d="M129.124,318.451h261.673c-20.87,59.035-25.99,118.068-15.339,177.103
	c1.523,8.48-5.002,16.257-13.6,16.257H158.517c-8.739,0-15.253-7.993-13.535-16.559
	C156.086,439.662,150.296,380.359,129.124,318.451z"/>
<path style="fill:#079B6D;" d="M258.211,495.251c11.104-55.589,5.315-114.892-15.858-176.8H129.124
	c21.173,61.908,26.963,121.212,15.858,176.8c-1.718,8.566,4.796,16.559,13.535,16.559h113.229
	C263.008,511.81,256.494,503.817,258.211,495.251z"/>
<path style="fill:#E8B62A;" d="M144.422,375.702h231.084c3.454-19.084,8.544-38.168,15.291-57.252H129.124
	C135.742,337.8,140.856,356.895,144.422,375.702z"/>
<path style="fill:#EAA428;" d="M242.353,318.45H129.124c0.756,2.211,1.487,4.419,2.204,6.623c0.224,0.688,0.44,1.376,0.66,2.063
	c0.494,1.542,0.978,3.081,1.452,4.62c0.237,0.771,0.472,1.541,0.705,2.31c0.465,1.537,0.917,3.072,1.362,4.606
	c0.198,0.683,0.4,1.366,0.595,2.049c0.623,2.189,1.232,4.375,1.816,6.557c0.002,0.008,0.004,0.016,0.006,0.025
	c0.581,2.173,1.137,4.342,1.678,6.508c0.169,0.677,0.331,1.352,0.496,2.029c0.373,1.524,0.737,3.047,1.09,4.568
	c0.175,0.754,0.347,1.509,0.518,2.262c0.344,1.523,0.676,3.043,1,4.562c0.142,0.666,0.289,1.333,0.427,1.999
	c0.448,2.16,0.883,4.317,1.291,6.469c0,0.001,0,0.002,0.001,0.003h113.229C254.086,356.895,248.971,337.8,242.353,318.45z"/>
<path style="fill:#008975;" d="M448.999,286.044c8.944,0,16.203,7.26,16.203,16.203c0,4.472-1.815,8.523-4.754,11.45
	c-2.928,2.938-6.978,4.752-11.45,4.752H68.761c-8.944,0-16.203-7.26-16.203-16.203c0-4.472,1.815-8.523,4.753-11.45
	c2.928-2.938,6.978-4.753,11.45-4.753h380.237V286.044z"/>
<path style="fill:#03725F;" d="M460.45,297.495c-2.927,2.938-6.978,4.753-11.45,4.753H68.761c-5.989,0-11.21-3.263-14.014-8.099
	c-1.384,2.384-2.189,5.146-2.189,8.099c0,8.944,7.26,16.203,16.203,16.203h380.238c4.472,0,8.523-1.815,11.45-4.753
	c2.938-2.928,4.752-6.978,4.752-11.45c0-2.955-0.805-5.718-2.189-8.103C462.302,295.369,461.447,296.5,460.45,297.495z"/>
<path style="fill:#F2BC97;" d="M304.867,274.772c-0.302,0-0.607-0.019-0.915-0.055l-0.511-0.061
	c-4.125-0.487-7.128-4.148-6.797-8.289l9.284-116.485c1.187-14.894,4.594-30.034,10.126-44.998c1.237-3.346,4.601-5.405,8.149-4.997
	c3.544,0.415,6.342,3.204,6.772,6.746c1.92,15.839,1.731,31.356-0.561,46.119l-17.92,115.475
	C311.906,272.032,308.627,274.772,304.867,274.772z"/>
<path style="fill:#C68106;" d="M420.518,197.639l-1.484-13.983c-1.115-0.372-2.33-0.501-3.575-0.315l-29.166,4.321
	c-0.54,0.08-1.057,0.215-1.55,0.397l0.791,7.453l0.789,7.439c0.359,0.052,0.721,0.086,1.091,0.086c0.376,0,0.758-0.027,1.142-0.085
	l29.166-4.321C418.744,198.479,419.684,198.131,420.518,197.639z"/>
<g>
	<path style="fill:#E8B62A;" d="M117.951,60.573c2.971,1.62,2.971,5.877,0,7.497l-10.273,5.628
		c-0.723,0.388-1.307,0.972-1.696,1.696l-5.628,10.273c-1.62,2.971-5.877,2.971-7.497,0l-5.628-10.273
		c-0.388-0.723-0.972-1.307-1.696-1.696L75.26,68.07c-2.971-1.62-2.971-5.877,0-7.497l10.273-5.628
		c0.723-0.388,1.307-0.972,1.696-1.696l5.628-10.273c1.62-2.971,5.877-2.971,7.497,0l5.628,10.273
		c0.388,0.723,0.972,1.307,1.696,1.696L117.951,60.573z"/>
	<path style="fill:#E8B62A;" d="M509.772,161.851c2.971,1.62,2.971,5.877,0,7.497l-10.273,5.628
		c-0.723,0.388-1.307,0.972-1.696,1.696l-5.628,10.273c-1.62,2.971-5.877,2.971-7.497,0l-5.628-10.273
		c-0.388-0.723-0.972-1.307-1.696-1.696l-10.273-5.628c-2.971-1.62-2.971-5.877,0-7.497l10.273-5.628
		c0.723-0.388,1.307-0.972,1.696-1.696l5.628-10.273c1.62-2.971,5.877-2.971,7.497,0l5.628,10.273
		c0.389,0.723,0.972,1.307,1.696,1.696L509.772,161.851z"/>
	<path style="fill:#E8B62A;" d="M273.69,17.453c2.581,1.405,2.581,5.12,0,6.525l-8.955,4.894c-0.616,0.345-1.135,0.865-1.48,1.48
		l-4.894,8.955c-1.405,2.581-5.12,2.581-6.525,0l-4.894-8.955c-0.345-0.616-0.865-1.135-1.48-1.48l-8.955-4.894
		c-2.581-1.405-2.581-5.12,0-6.525l8.955-4.894c0.616-0.345,1.135-0.865,1.48-1.48l4.894-8.955c1.405-2.581,5.12-2.581,6.525,0
		l4.894,8.955c0.345,0.616,0.865,1.135,1.48,1.48L273.69,17.453z"/>
	<path style="fill:#E8B62A;" d="M56.566,230.391c2.581,1.405,2.581,5.12,0,6.525l-8.955,4.894c-0.616,0.345-1.135,0.865-1.48,1.48
		l-4.894,8.955c-1.405,2.581-5.12,2.581-6.525,0l-4.894-8.955c-0.345-0.616-0.865-1.135-1.48-1.48l-8.955-4.894
		c-2.581-1.405-2.581-5.12,0-6.525l8.955-4.894c0.616-0.345,1.135-0.865,1.48-1.48l4.894-8.955c1.405-2.581,5.12-2.581,6.525,0
		l4.894,8.955c0.345,0.616,0.865,1.135,1.48,1.48L56.566,230.391z"/>
</g>
<g>
	<path style="fill:#2CD4E5;" d="M424.338,49.01c-4.268,0-7.728-3.459-7.728-7.728v-8.101c0-4.269,3.46-7.728,7.728-7.728
		s7.728,3.459,7.728,7.728v8.101C432.067,45.551,428.607,49.01,424.338,49.01z"/>
	<path style="fill:#2CD4E5;" d="M446.483,63.052h-8.101c-4.268,0-7.728-3.459-7.728-7.728s3.46-7.728,7.728-7.728h8.101
		c4.268,0,7.728,3.459,7.728,7.728S450.751,63.052,446.483,63.052z"/>
	<path style="fill:#2CD4E5;" d="M424.338,85.197c-4.268,0-7.728-3.459-7.728-7.728v-8.101c0-4.269,3.46-7.728,7.728-7.728
		s7.728,3.459,7.728,7.728v8.101C432.067,81.738,428.607,85.197,424.338,85.197z"/>
	<path style="fill:#2CD4E5;" d="M410.295,63.052h-8.101c-4.268,0-7.728-3.459-7.728-7.728s3.46-7.728,7.728-7.728h8.101
		c4.268,0,7.728,3.459,7.728,7.728S414.565,63.052,410.295,63.052z"/>
	<path style="fill:#2CD4E5;" d="M29.873,153.344c-4.268,0-7.728-3.459-7.728-7.728v-8.101c0-4.269,3.46-7.728,7.728-7.728
		s7.728,3.459,7.728,7.728v8.101C37.601,149.885,34.141,153.344,29.873,153.344z"/>
	<path style="fill:#2CD4E5;" d="M52.017,167.387h-8.101c-4.268,0-7.728-3.459-7.728-7.728c0-4.269,3.46-7.728,7.728-7.728h8.101
		c4.268,0,7.728,3.459,7.728,7.728C59.746,163.928,56.286,167.387,52.017,167.387z"/>
	<path style="fill:#2CD4E5;" d="M29.873,189.531c-4.268,0-7.728-3.459-7.728-7.728v-8.101c0-4.269,3.46-7.728,7.728-7.728
		s7.728,3.459,7.728,7.728v8.101C37.601,186.072,34.141,189.531,29.873,189.531z"/>
	<path style="fill:#2CD4E5;" d="M15.83,167.387H7.728c-4.268,0-7.728-3.459-7.728-7.728c0-4.269,3.46-7.728,7.728-7.728h8.101
		c4.268,0,7.728,3.459,7.728,7.728C23.558,163.928,20.098,167.387,15.83,167.387z"/>
</g>
<g>
</g>
<g>
</g>
<g>
</g>
<g>
</g>
<g>
</g>
<g>
</g>
<g>
</g>
<g>
</g>
<g>
</g>
<g>
</g>
<g>
</g>
<g>
</g>
<g>
</g>
<g>
</g>
<g>
</g>
</svg>
